<svg width="52" height="40" viewBox="0 0 52 40" fill="none" xmlns="http://www.w3.org/2000/svg">
<circle cx="26" cy="20" r="20" fill="#F4F4F4"/>
<path fill-rule="evenodd" clip-rule="evenodd" d="M39.6961 6.10598C38.8322 6.33848 38.3496 6.68273 38.1366 7.21872C37.9151 7.77622 37.7509 9.38376 37.9055 9.48103C37.9687 9.52081 38.2154 9.47836 38.4539 9.38671C38.8342 9.24052 38.898 9.1379 38.9746 8.55033C39.0891 7.67107 39.2674 7.45066 39.9386 7.35901C40.4359 7.29111 40.5341 7.32963 40.8563 7.71971C41.0547 7.96008 41.2863 8.15659 41.3709 8.15659C41.6117 8.15659 42.339 7.74149 42.339 7.60402C42.339 7.45319 41.4036 6.29293 41.1849 6.17246C40.8137 5.96794 40.295 5.94474 39.6961 6.10598ZM29.5438 8.12862C28.6494 8.974 27.8044 9.79478 27.6659 9.95264C27.4213 10.2317 27.4226 10.2424 27.7122 10.336C27.9219 10.4037 28.107 10.3393 28.3382 10.1182C28.6513 9.81868 28.6824 9.81503 29.0176 10.0387C29.3666 10.2716 29.376 10.2667 30.5355 9.25205L31.7022 8.2311L31.3358 7.84158C31.0559 7.54414 31.0075 7.41299 31.1307 7.28746C31.3423 7.07197 31.7129 7.40792 32.4001 8.43773C33.2308 9.68303 33.5385 10.3922 33.4776 10.9227C33.4348 11.2961 33.4696 11.3907 33.6374 11.3583C34.0408 11.2806 33.9827 10.3136 33.5179 9.36703C33.0267 8.36702 31.7363 6.70269 31.4009 6.6369C31.2608 6.60935 30.5309 7.19567 29.5438 8.12862ZM26.1284 10.8218C25.8283 11.1596 25.8904 11.5512 26.5084 13.2171C26.9007 14.275 26.9908 14.4119 27.2946 14.4119C27.7961 14.4119 27.7932 14.0748 27.2808 12.7982C27.0332 12.1814 26.8708 11.636 26.9199 11.5859C26.9689 11.536 27.2613 11.5979 27.5696 11.7235C28.2797 12.013 28.7614 12.0146 28.8692 11.7284C28.9948 11.395 28.9 11.3138 27.9172 10.9131C26.8412 10.4743 26.4547 10.4546 26.1284 10.8218ZM23.7988 13.0525C23.4866 13.4037 23.511 13.8076 23.9201 15.0588C24.3596 16.4031 24.5325 16.6555 24.9264 16.5282C25.3261 16.399 25.3142 15.9617 24.8814 14.8769C24.5633 14.0795 24.4591 13.6388 24.5886 13.6388C24.6173 13.6388 24.862 13.733 25.1323 13.8479C25.5694 14.0341 25.6472 14.0335 25.8334 13.8439C26.1478 13.5237 25.9654 13.2605 25.2596 13.0155C24.4332 12.7287 24.0784 12.7376 23.7988 13.0525ZM21.4527 15.161C21.1225 15.5327 21.177 16.083 21.6782 17.4341C22.03 18.3827 22.1834 18.638 22.4225 18.6727C22.6147 18.7005 22.7784 18.6121 22.875 18.4284C22.9968 18.1964 22.9441 17.9437 22.6034 17.1284C22.1448 16.0306 22.1416 15.6356 22.5932 15.8818C22.9924 16.0994 23.5291 16.0595 23.625 15.8049C23.7479 15.4788 23.6427 15.3772 22.9247 15.128C22.0871 14.8373 21.7333 14.8451 21.4527 15.161ZM19.5682 17.1231C19.201 17.2413 18.8782 17.6105 18.8782 17.9123C18.8782 18.3546 19.5565 20.3403 19.8216 20.6735C20.0826 21.0019 20.4766 20.933 20.5998 20.5376C20.6418 20.4032 20.4878 19.8283 20.2576 19.2598C19.8219 18.1838 19.8564 17.8426 20.3724 18.1239C21.0035 18.468 21.6707 18.0914 21.2087 17.652C20.9473 17.4036 19.823 17.041 19.5682 17.1231ZM48.9272 18.5938C48.7844 18.7045 48.4656 19.7317 48.0654 21.3701C47.5406 23.5188 47.3656 24.0364 47.0582 24.3496C46.8278 24.5843 44.7956 25.5892 41.718 26.9904C35.7305 29.7165 34.8868 30.1202 34.8868 30.2592C34.8868 30.4335 35.0953 30.3918 36.8617 29.8634C37.7869 29.5867 39.1649 29.1809 39.9239 28.9616C40.683 28.7422 41.6455 28.4592 42.063 28.3326C42.4805 28.2059 43.2567 27.9726 43.7881 27.814C47.7582 26.6292 48.1625 26.4643 49.3773 25.5337C50.6506 24.5584 51.3128 23.8108 51.7273 22.8805C52.2316 21.749 52.0782 21.1891 50.9146 19.9153C50.466 19.424 50.0565 18.8862 50.0048 18.7201C49.897 18.374 49.3011 18.3041 48.9272 18.5938ZM9.21789 23.9149C8.57271 24.217 6.86491 24.8483 5.42276 25.3177C1.71926 26.5229 1.66558 26.5452 1.14075 27.0956C0.652347 27.6079 0.175954 28.6996 0.0271853 29.6473C-0.112337 30.5357 0.296571 31.6946 0.992529 32.3835C1.62901 33.0135 3.69231 34.133 4.44706 34.2577C4.90413 34.3333 4.91435 34.3229 5.55841 33.1194C5.91585 32.4514 6.17488 31.8162 6.13403 31.7078C6.09194 31.5957 5.77343 31.4737 5.39626 31.4249C3.3364 31.1586 1.54137 30.511 1.14199 29.8901C0.868324 29.4647 0.992115 28.9501 1.57311 28.096C2.00259 27.4648 2.52424 27.2288 5.42276 26.3544C7.21765 25.813 9.93717 24.7825 10.1104 24.5781C10.2284 24.4391 10.5979 23.6107 10.5979 23.4856C10.5979 23.2787 10.5336 23.2987 9.21789 23.9149Z" fill="black"/>
<path d="M14.6486 21.3366L12.5582 22.7055L11.4178 24.814C8.69554 29.848 7.42396 32.3417 7.42507 32.6435C7.42686 33.0644 8.17581 34.3917 8.51655 34.5773C8.66214 34.6568 8.9572 34.6894 9.17207 34.6499C9.7027 34.5523 25.9585 31.966 26.7677 31.8505C27.1221 31.7998 27.4762 31.6795 27.5547 31.5832C27.7525 31.3405 28.2516 26.5569 28.1089 26.2714C28.0459 26.1452 27.9091 26.0087 27.8051 25.9679C27.632 25.9003 24.5019 26.8123 21.4313 27.8251C20.7482 28.0503 19.5682 28.4265 18.8092 28.6607C18.0502 28.895 16.6069 29.3472 15.602 29.6654C13.8887 30.208 13.496 30.2587 13.496 29.9369C13.496 29.8644 13.7102 29.3462 13.9721 28.7855C14.0736 28.5681 15.4065 25.9108 15.6667 25.3333C16.0775 24.4214 15.5027 25.3905 16.0381 24.1844C17.4605 20.9798 18.1648 22.5875 18 22.3333C17.8987 22.177 16.7839 21.4494 16.6667 21.3333C16.5494 21.2172 15.7984 20.5837 14.6486 21.3366Z" fill="#D61313"/>
<path d="M34.9037 12.2299C30.4728 14.0736 26.7724 15.6668 26.6806 15.7701C26.5079 15.9645 24.6744 22.2897 24.6744 22.6907C24.6744 22.8474 24.8001 22.9163 25.0862 22.9163C25.3127 22.9163 28.4875 22.4686 32.1413 21.9214C36.6157 21.2514 38.8302 20.973 38.9241 21.0685C39.2365 21.3868 38.8029 21.6564 36.5198 22.5638C35.2042 23.0867 33.4158 23.8068 32.5457 24.1643L30.9637 24.814L30.8035 26.1494C30.7154 26.8839 30.6023 27.9276 30.5522 28.4688C30.5021 29.01 30.434 29.6522 30.4011 29.896C30.2782 30.8034 30.4934 30.7619 33.7714 29.2471C35.4508 28.4712 36.8482 27.8362 36.8771 27.8362C36.9059 27.8362 37.479 27.5749 38.1507 27.2554C38.8224 26.936 40.7981 26.0195 42.5412 25.219C44.2843 24.4183 45.8605 23.6104 46.0438 23.4236C46.312 23.1505 46.5345 22.4288 47.1823 19.732C47.6252 17.8883 47.9896 16.2376 47.9924 16.0636C47.996 15.8283 47.9177 15.7469 47.6867 15.7456C47.5159 15.7448 44.6819 16.0668 41.389 16.4614C35.3038 17.1905 35.0482 17.199 35.2496 16.6647C35.2831 16.5753 37.8391 15.6485 40.9294 14.6052C46.3879 12.7625 46.5482 12.6981 46.5482 12.3472C46.5482 11.8444 43.7371 8.85536 43.2768 8.86858C43.1026 8.8735 39.3347 10.3862 34.9037 12.2299Z" fill="#D61313"/>
<path d="M18.8092 28.6607C19.5682 28.4265 20.7482 28.0503 21.4313 27.8251L29.3333 22L25.3333 22.3333L24.8159 22.0328L19.2302 26.1248L17.0135 28.2881L15.602 29.6654C16.6069 29.3472 18.0502 28.895 18.8092 28.6607Z" fill="#D61313"/>
<path d="M16.0381 24.1844C15.5027 25.3905 16.0775 24.4214 15.6667 25.3333C16.6017 24.9666 17.6667 27 17.0135 28.2881L19.2302 26.1248C19.3847 25.774 19.5339 25.3963 19.6667 25C20.2 23.4077 18.9632 23.2303 18 22.3333C18.1648 22.5875 17.4605 20.9798 16.0381 24.1844Z" fill="#D61313"/>
</svg>
